# Blender v3.1.2 OBJ File: ''
# www.blender.org
mtllib gloveGDR.mtl
o grobeGD
v -0.364075 0.272118 0.748795
v -0.364075 -0.227882 0.548795
v -0.364075 -0.227882 0.748795
v -0.364075 0.272118 0.548795
v -0.364075 -0.227882 0.448795
v -0.364075 0.272118 0.448795
v -0.364075 -0.227881 -0.551205
v -0.364075 0.272119 -0.551205
v -0.264075 0.172119 -0.551205
v -0.264075 -0.127881 -0.651205
v -0.264075 -0.127881 -0.551205
v -0.264075 0.172119 -0.651205
v -0.264075 0.272119 -0.551205
v -0.264075 0.272119 -0.651205
v -0.264075 -0.227881 -0.051205
v -0.264075 -0.227881 -0.551205
v -0.264075 -0.127881 -0.251205
v -0.264075 -0.127881 -0.551205
v -0.264075 -0.027881 -0.251205
v -0.264075 0.072119 -0.051205
v -0.264075 -0.027881 -0.451205
v -0.264075 0.072119 -0.451205
v 0.335925 -0.127881 -0.251205
v 0.335925 -0.127881 -0.651205
v 0.335925 -0.027881 -0.251205
v 0.335925 -0.027881 -0.451205
v 0.335925 -0.227882 0.448795
v 0.335925 -0.227881 -0.051205
v 0.335925 0.072119 -0.051205
v 0.335925 0.072119 -0.451205
v 0.335925 -0.227882 0.748795
v 0.335925 -0.227882 0.548795
v 0.335925 0.272118 0.748795
v 0.335925 0.272118 0.548795
v 0.335925 0.272118 0.448795
v 0.335925 0.272119 -0.651205
v 0.335925 -0.227882 0.748795
v -0.364075 0.272118 0.748795
v -0.364075 -0.227882 0.748795
v 0.335925 0.272118 0.748795
v 0.335925 -0.127881 -0.251205
v -0.264075 -0.027881 -0.251205
v -0.264075 -0.127881 -0.251205
v 0.335925 -0.027881 -0.251205
v 0.335925 -0.027881 -0.451205
v -0.264075 0.072119 -0.451205
v -0.264075 -0.027881 -0.451205
v 0.335925 0.072119 -0.451205
v -0.264075 -0.227881 -0.051205
v -0.264075 0.072119 -0.051205
v 0.335925 -0.227881 -0.051205
v 0.335925 0.072119 -0.051205
v -0.364075 -0.227881 -0.551205
v -0.364075 0.272119 -0.551205
v -0.264075 -0.227881 -0.551205
v -0.264075 -0.127881 -0.551205
v -0.264075 0.172119 -0.551205
v -0.264075 0.272119 -0.551205
v -0.264075 -0.127881 -0.651205
v -0.264075 0.172119 -0.651205
v -0.164075 0.172119 -0.651205
v -0.264075 0.272119 -0.651205
v -0.164075 0.272119 -0.651205
v 0.335925 -0.127881 -0.651205
v 0.335925 0.272119 -0.651205
v -0.364075 -0.227882 0.548795
v 0.335925 -0.227882 0.748795
v -0.364075 -0.227882 0.748795
v 0.335925 -0.227882 0.548795
v -0.364075 -0.227882 0.448795
v 0.335925 -0.227882 0.448795
v -0.264075 -0.227881 -0.051205
v 0.335925 -0.227881 -0.051205
v -0.364075 -0.227881 -0.551205
v -0.264075 -0.227881 -0.551205
v -0.264075 -0.127881 -0.551205
v 0.335925 -0.127881 -0.251205
v -0.264075 -0.127881 -0.251205
v -0.264075 -0.127881 -0.651205
v 0.335925 -0.127881 -0.651205
v -0.264075 0.072119 -0.451205
v 0.335925 0.072119 -0.051205
v -0.264075 0.072119 -0.051205
v 0.335925 0.072119 -0.451205
v -0.264075 -0.027881 -0.251205
v 0.335925 -0.027881 -0.251205
v -0.264075 -0.027881 -0.451205
v 0.335925 -0.027881 -0.451205
v -0.364075 0.272118 0.748795
v 0.335925 0.272118 0.748795
v -0.364075 0.272118 0.548795
v 0.335925 0.272118 0.548795
v -0.364075 0.272118 0.448795
v 0.335925 0.272118 0.448795
v -0.164075 0.272119 -0.151205
v -0.064075 0.272119 -0.151205
v -0.264075 0.272119 -0.351205
v -0.164075 0.272119 -0.351205
v -0.064075 0.272119 -0.351205
v -0.364075 0.272119 -0.551205
v -0.264075 0.272119 -0.551205
v -0.264075 0.272119 -0.651205
v -0.164075 0.272119 -0.651205
v 0.335925 0.272119 -0.651205
vt 0.017578 0.500000
vt 0.017578 0.500000
vt 0.017578 0.500000
vt 0.962891 0.500000
vt 0.962891 0.500000
vt 0.962891 0.500000
vt 0.017578 0.500000
vt 0.017578 0.500000
vt 0.017578 0.500000
vt 0.017578 0.500000
vt 0.962891 0.500000
vt 0.017578 0.500000
vt 0.017578 0.500000
vt 0.017578 0.500000
vt 0.017578 0.500000
vt 0.017578 0.500000
vt 0.962891 0.500000
vt 0.962891 0.500000
vt 0.962891 0.500000
vt 0.962891 0.500000
vt 0.017578 0.500000
vt 0.017578 0.500000
vt 0.017578 0.500000
vt 0.017578 0.500000
vt 0.017578 0.500000
vt 0.017578 0.500000
vt 0.017578 0.500000
vt 0.017578 0.500000
vt 0.017578 0.500000
vt 0.017578 0.500000
vt 0.017578 0.500000
vt 0.017578 0.500000
vt 0.017578 0.500000
vt 0.017578 0.500000
vt 0.017578 0.500000
vt 0.017578 0.500000
vt 0.017578 0.500000
vt 0.017578 0.500000
vt 0.017578 0.500000
vt 0.962891 0.500000
vt 0.962891 0.500000
vt 0.962891 0.500000
vt 0.017578 0.500000
vt 0.017578 0.500000
vt 0.962891 0.500000
vt 0.017578 0.500000
vt 0.017578 0.500000
vt 0.017578 0.500000
vt 0.017578 0.500000
vt 0.017578 0.500000
vt 0.017578 0.500000
vt 0.017578 0.500000
vt 0.017578 0.500000
vt 0.017578 0.500000
vt 0.017578 0.500000
vt 0.017578 0.500000
vt 0.017578 0.500000
vt 0.017578 0.500000
vt 0.017578 0.500000
vt 0.017578 0.500000
vt 0.017578 0.500000
vt 0.017578 0.500000
vt 0.017578 0.500000
vt 0.017578 0.500000
vt 0.017578 0.500000
vt 0.017578 0.500000
vt 0.017578 0.500000
vt 0.017578 0.500000
vt 0.017578 0.500000
vt 0.017578 0.500000
vt 0.017578 0.500000
vt 0.962891 0.500000
vt 0.962891 0.500000
vt 0.962891 0.500000
vt 0.962891 0.500000
vt 0.017578 0.500000
vt 0.017578 0.500000
vt 0.017578 0.500000
vt 0.017578 0.500000
vt 0.017578 0.500000
vt 0.017578 0.500000
vt 0.017578 0.500000
vt 0.962891 0.500000
vt 0.962891 0.500000
vt 0.962891 0.500000
vt 0.962891 0.500000
vt 0.017578 0.500000
vt 0.017578 0.500000
vt 0.017578 0.500000
vt 0.017578 0.500000
vt 0.017578 0.500000
vt 0.017578 0.500000
vt 0.017578 0.500000
vt 0.017578 0.500000
vt 0.017578 0.500000
vt 0.017578 0.500000
vt 0.017578 0.500000
vt 0.017578 0.500000
vt 0.017578 0.500000
vt 0.017578 0.500000
vt 0.017578 0.500000
vt 0.017578 0.500000
vt 0.017578 0.500000
vt 0.017578 0.500000
vt 0.017578 0.500000
vt 0.017578 0.500000
vt 0.017578 0.500000
vt 0.017578 0.500000
vt 0.017578 0.500000
vt 0.962891 0.500000
vt 0.962891 0.500000
vt 0.962891 0.500000
vt 0.962891 0.500000
vt 0.017578 0.500000
vt 0.017578 0.500000
vt 0.017578 0.500000
vt 0.017578 0.500000
vt 0.017578 0.500000
vt 0.962891 0.500000
vt 0.962891 0.500000
vt 0.962891 0.500000
vt 0.017578 0.500000
vt 0.017578 0.500000
vt 0.962891 0.500000
vt 0.017578 0.500000
vt 0.962891 0.500000
vt 0.962891 0.500000
vt 0.017578 0.500000
vt 0.962891 0.500000
vt 0.017578 0.500000
vt 0.962891 0.500000
vt 0.017578 0.500000
vn -1.0000 0.0000 0.0000
vn 1.0000 0.0000 0.0000
vn 0.0000 -0.0000 1.0000
vn 0.0000 0.0000 -1.0000
vn 0.0000 -1.0000 -0.0000
vn 0.0000 1.0000 0.0000
usemtl palette
s 1
f 1/1/1 2/2/1 3/3/1
f 4/4/1 5/5/1 2/6/1
f 4/7/1 2/2/1 1/1/1
f 6/8/1 7/9/1 5/10/1
f 6/11/1 5/5/1 4/4/1
f 8/12/1 7/9/1 6/8/1
f 9/13/1 10/14/1 11/15/1
f 12/16/1 10/14/1 9/13/1
f 13/17/1 12/18/1 9/19/1
f 14/20/1 12/18/1 13/17/1
f 15/21/2 16/22/2 17/23/2
f 17/23/2 16/22/2 18/24/2
f 15/21/2 17/23/2 19/25/2
f 15/21/2 19/25/2 20/26/2
f 19/25/2 21/27/2 20/26/2
f 20/26/2 21/27/2 22/28/2
f 23/29/2 24/30/2 25/31/2
f 25/31/2 24/30/2 26/32/2
f 27/33/2 28/34/2 29/35/2
f 26/32/2 24/30/2 30/36/2
f 31/37/2 32/38/2 33/39/2
f 32/40/2 27/41/2 34/42/2
f 33/39/2 32/38/2 34/43/2
f 29/35/2 30/36/2 35/44/2
f 34/42/2 27/41/2 35/45/2
f 27/33/2 29/35/2 35/44/2
f 30/36/2 24/30/2 36/46/2
f 35/44/2 30/36/2 36/46/2
f 37/47/3 38/48/3 39/49/3
f 40/50/3 38/48/3 37/47/3
f 41/51/3 42/52/3 43/53/3
f 44/54/3 42/52/3 41/51/3
f 45/55/3 46/56/3 47/57/3
f 48/58/3 46/56/3 45/55/3
f 49/59/4 50/60/4 51/61/4
f 51/61/4 50/60/4 52/62/4
f 53/63/4 54/64/4 55/65/4
f 55/65/4 54/64/4 56/66/4
f 56/66/4 54/64/4 57/67/4
f 57/67/4 54/64/4 58/68/4
f 59/69/4 60/70/4 61/71/4
f 60/72/4 62/73/4 61/74/4
f 61/74/4 62/73/4 63/75/4
f 59/69/4 61/71/4 64/76/4
f 61/71/4 63/77/4 64/76/4
f 64/76/4 63/77/4 65/78/4
f 66/79/5 67/80/5 68/81/5
f 69/82/5 67/80/5 66/79/5
f 70/83/5 69/84/5 66/85/5
f 71/86/5 69/84/5 70/83/5
f 72/87/5 71/88/5 70/89/5
f 73/90/5 71/88/5 72/87/5
f 74/91/5 72/87/5 70/89/5
f 75/92/5 72/87/5 74/91/5
f 76/93/5 77/94/5 78/95/5
f 79/96/5 77/94/5 76/93/5
f 80/97/5 77/94/5 79/96/5
f 81/98/5 82/99/5 83/100/5
f 84/101/5 82/99/5 81/98/5
f 85/102/6 86/103/6 87/104/6
f 87/104/6 86/103/6 88/105/6
f 89/106/6 90/107/6 91/108/6
f 91/108/6 90/107/6 92/109/6
f 91/110/6 92/111/6 93/112/6
f 93/112/6 92/111/6 94/113/6
f 93/114/6 94/115/6 95/116/6
f 95/116/6 94/115/6 96/117/6
f 93/114/6 95/116/6 97/118/6
f 95/119/6 96/120/6 98/121/6
f 97/118/6 95/116/6 98/122/6
f 96/117/6 94/115/6 99/123/6
f 98/121/6 96/120/6 99/124/6
f 93/114/6 97/118/6 100/125/6
f 97/126/6 98/121/6 101/127/6
f 100/125/6 97/118/6 101/128/6
f 101/127/6 98/121/6 102/129/6
f 98/122/6 99/123/6 103/130/6
f 102/129/6 98/121/6 103/131/6
f 99/123/6 94/115/6 104/132/6
f 103/130/6 99/123/6 104/132/6
