# Blender v3.1.2 OBJ File: ''
# www.blender.org
mtllib NM2.mtl
o GDM
v -1.000000 0.802708 0.158524
v -1.000000 0.202708 0.058524
v -1.000000 0.202708 0.158524
v -1.000000 0.802708 0.058524
v -0.900000 0.702708 0.058524
v -0.900000 0.302708 -0.041476
v -0.900000 0.302708 0.058524
v -0.900000 0.702708 -0.041476
v -0.400000 0.102708 0.158524
v -0.400000 0.002708 -0.141476
v -0.400000 0.002708 0.158524
v -0.400000 0.102708 -0.141476
v -0.200000 0.202708 0.058524
v -0.200000 0.102708 -0.041476
v -0.200000 0.102708 0.058524
v -0.200000 0.302708 0.058524
v -0.200000 0.302708 -0.041476
v 0.700000 0.702708 0.158524
v 0.700000 0.302708 0.058524
v 0.700000 0.302708 0.158524
v 0.700000 0.702708 0.058524
v -0.900000 0.302708 0.158524
v -0.900000 0.302708 0.058524
v -0.900000 0.702708 0.158524
v -0.900000 0.702708 0.058524
v 0.000000 0.102708 0.058524
v 0.000000 0.102708 -0.041476
v 0.000000 0.202708 0.058524
v 0.000000 0.302708 0.058524
v 0.000000 0.302708 -0.041476
v 0.200000 0.002708 0.158524
v 0.200000 0.002708 -0.141476
v 0.200000 0.102708 0.158524
v 0.200000 0.102708 -0.141476
v 0.700000 0.302708 0.058524
v 0.700000 0.302708 -0.041476
v 0.700000 0.702708 0.058524
v 0.700000 0.702708 -0.041476
v 0.800000 0.202708 0.158524
v 0.800000 0.202708 0.058524
v 0.800000 0.802708 0.158524
v 0.800000 0.802708 0.058524
v -0.900000 0.302708 0.158524
v -1.000000 0.802708 0.158524
v -1.000000 0.202708 0.158524
v -0.900000 0.702708 0.158524
v 0.200000 0.002708 0.158524
v -0.400000 0.102708 0.158524
v -0.400000 0.002708 0.158524
v 0.200000 0.102708 0.158524
v 0.700000 0.302708 0.158524
v 0.700000 0.702708 0.158524
v 0.800000 0.202708 0.158524
v 0.800000 0.802708 0.158524
v 0.000000 0.102708 0.058524
v -0.200000 0.202708 0.058524
v -0.200000 0.102708 0.058524
v 0.000000 0.202708 0.058524
v 0.700000 0.302708 0.058524
v -0.900000 0.702708 0.058524
v -0.900000 0.302708 0.058524
v 0.700000 0.702708 0.058524
v -1.000000 0.202708 0.058524
v -1.000000 0.802708 0.058524
v -0.900000 0.302708 0.058524
v -0.900000 0.702708 0.058524
v -0.200000 0.202708 0.058524
v -0.200000 0.302708 0.058524
v 0.000000 0.202708 0.058524
v 0.000000 0.302708 0.058524
v 0.700000 0.302708 0.058524
v 0.700000 0.702708 0.058524
v 0.800000 0.202708 0.058524
v 0.800000 0.802708 0.058524
v -0.900000 0.302708 -0.041476
v -0.900000 0.702708 -0.041476
v -0.200000 0.302708 -0.041476
v -0.200000 0.102708 -0.041476
v 0.000000 0.102708 -0.041476
v 0.000000 0.302708 -0.041476
v 0.700000 0.302708 -0.041476
v 0.700000 0.702708 -0.041476
v -0.400000 0.002708 -0.141476
v -0.400000 0.102708 -0.141476
v 0.200000 0.002708 -0.141476
v 0.200000 0.102708 -0.141476
v -0.400000 0.002708 -0.141476
v 0.200000 0.002708 0.158524
v -0.400000 0.002708 0.158524
v 0.200000 0.002708 -0.141476
v -1.000000 0.202708 0.058524
v 0.800000 0.202708 0.158524
v -1.000000 0.202708 0.158524
v -0.200000 0.202708 0.058524
v 0.000000 0.202708 0.058524
v 0.800000 0.202708 0.058524
v -0.900000 0.302708 -0.041476
v -0.200000 0.302708 0.058524
v -0.900000 0.302708 0.058524
v -0.200000 0.302708 -0.041476
v 0.000000 0.302708 -0.041476
v 0.700000 0.302708 0.058524
v 0.000000 0.302708 0.058524
v 0.700000 0.302708 -0.041476
v -0.900000 0.702708 0.058524
v 0.700000 0.702708 0.158524
v -0.900000 0.702708 0.158524
v 0.700000 0.702708 0.058524
v -0.400000 0.102708 0.158524
v 0.200000 0.102708 0.158524
v -0.200000 0.102708 0.058524
v 0.000000 0.102708 0.058524
v -0.200000 0.102708 -0.041476
v 0.000000 0.102708 -0.041476
v -0.400000 0.102708 -0.141476
v 0.200000 0.102708 -0.141476
v -0.900000 0.302708 0.158524
v 0.700000 0.302708 0.158524
v -0.900000 0.302708 0.058524
v 0.700000 0.302708 0.058524
v -0.900000 0.702708 0.058524
v 0.700000 0.702708 0.058524
v -0.900000 0.702708 -0.041476
v 0.700000 0.702708 -0.041476
v -1.000000 0.802708 0.158524
v 0.800000 0.802708 0.158524
v -1.000000 0.802708 0.058524
v 0.800000 0.802708 0.058524
vt 0.986328 0.500000
vt 0.986328 0.500000
vt 0.986328 0.500000
vt 0.986328 0.500000
vt 0.994141 0.500000
vt 0.994141 0.500000
vt 0.994141 0.500000
vt 0.994141 0.500000
vt 0.978516 0.500000
vt 0.978516 0.500000
vt 0.978516 0.500000
vt 0.978516 0.500000
vt 0.978516 0.500000
vt 0.978516 0.500000
vt 0.978516 0.500000
vt 0.978516 0.500000
vt 0.978516 0.500000
vt 0.986328 0.500000
vt 0.986328 0.500000
vt 0.986328 0.500000
vt 0.986328 0.500000
vt 0.986328 0.500000
vt 0.986328 0.500000
vt 0.986328 0.500000
vt 0.986328 0.500000
vt 0.978516 0.500000
vt 0.978516 0.500000
vt 0.978516 0.500000
vt 0.978516 0.500000
vt 0.978516 0.500000
vt 0.978516 0.500000
vt 0.978516 0.500000
vt 0.978516 0.500000
vt 0.978516 0.500000
vt 0.994141 0.500000
vt 0.994141 0.500000
vt 0.994141 0.500000
vt 0.994141 0.500000
vt 0.986328 0.500000
vt 0.986328 0.500000
vt 0.986328 0.500000
vt 0.986328 0.500000
vt 0.986328 0.500000
vt 0.986328 0.500000
vt 0.986328 0.500000
vt 0.986328 0.500000
vt 0.978516 0.500000
vt 0.978516 0.500000
vt 0.978516 0.500000
vt 0.978516 0.500000
vt 0.986328 0.500000
vt 0.986328 0.500000
vt 0.986328 0.500000
vt 0.986328 0.500000
vt 0.978516 0.500000
vt 0.978516 0.500000
vt 0.978516 0.500000
vt 0.978516 0.500000
vt 0.994141 0.500000
vt 0.994141 0.500000
vt 0.994141 0.500000
vt 0.994141 0.500000
vt 0.986328 0.500000
vt 0.986328 0.500000
vt 0.986328 0.500000
vt 0.986328 0.500000
vt 0.986328 0.500000
vt 0.986328 0.500000
vt 0.986328 0.500000
vt 0.986328 0.500000
vt 0.986328 0.500000
vt 0.986328 0.500000
vt 0.986328 0.500000
vt 0.986328 0.500000
vt 0.994141 0.500000
vt 0.994141 0.500000
vt 0.994141 0.500000
vt 0.978516 0.500000
vt 0.978516 0.500000
vt 0.978516 0.500000
vt 0.994141 0.500000
vt 0.978516 0.500000
vt 0.994141 0.500000
vt 0.994141 0.500000
vt 0.978516 0.500000
vt 0.978516 0.500000
vt 0.978516 0.500000
vt 0.978516 0.500000
vt 0.978516 0.500000
vt 0.978516 0.500000
vt 0.978516 0.500000
vt 0.978516 0.500000
vt 0.986328 0.500000
vt 0.986328 0.500000
vt 0.986328 0.500000
vt 0.986328 0.500000
vt 0.986328 0.500000
vt 0.986328 0.500000
vt 0.994141 0.500000
vt 0.994141 0.500000
vt 0.994141 0.500000
vt 0.994141 0.500000
vt 0.994141 0.500000
vt 0.994141 0.500000
vt 0.994141 0.500000
vt 0.994141 0.500000
vt 0.986328 0.500000
vt 0.986328 0.500000
vt 0.986328 0.500000
vt 0.986328 0.500000
vt 0.978516 0.500000
vt 0.978516 0.500000
vt 0.978516 0.500000
vt 0.978516 0.500000
vt 0.978516 0.500000
vt 0.978516 0.500000
vt 0.978516 0.500000
vt 0.978516 0.500000
vt 0.986328 0.500000
vt 0.986328 0.500000
vt 0.986328 0.500000
vt 0.986328 0.500000
vt 0.994141 0.500000
vt 0.994141 0.500000
vt 0.994141 0.500000
vt 0.994141 0.500000
vt 0.986328 0.500000
vt 0.986328 0.500000
vt 0.986328 0.500000
vt 0.986328 0.500000
vn -1.0000 0.0000 0.0000
vn 1.0000 0.0000 0.0000
vn 0.0000 -0.0000 1.0000
vn 0.0000 0.0000 -1.0000
vn 0.0000 -1.0000 -0.0000
vn -0.0000 1.0000 0.0000
usemtl palette
s 1
f 1/1/1 2/2/1 3/3/1
f 4/4/1 2/2/1 1/1/1
f 5/5/1 6/6/1 7/7/1
f 8/8/1 6/6/1 5/5/1
f 9/9/1 10/10/1 11/11/1
f 12/12/1 10/10/1 9/9/1
f 13/13/1 14/14/1 15/15/1
f 16/16/1 14/14/1 13/13/1
f 17/17/1 14/14/1 16/16/1
f 18/18/1 19/19/1 20/20/1
f 21/21/1 19/19/1 18/18/1
f 22/22/2 23/23/2 24/24/2
f 24/24/2 23/23/2 25/25/2
f 26/26/2 27/27/2 28/28/2
f 28/28/2 27/27/2 29/29/2
f 29/29/2 27/27/2 30/30/2
f 31/31/2 32/32/2 33/33/2
f 33/33/2 32/32/2 34/34/2
f 35/35/2 36/36/2 37/37/2
f 37/37/2 36/36/2 38/38/2
f 39/39/2 40/40/2 41/41/2
f 41/41/2 40/40/2 42/42/2
f 43/43/3 44/44/3 45/45/3
f 46/46/3 44/44/3 43/43/3
f 47/47/3 48/48/3 49/49/3
f 50/50/3 48/48/3 47/47/3
f 51/51/3 43/43/3 45/45/3
f 52/52/3 44/44/3 46/46/3
f 53/53/3 51/51/3 45/45/3
f 53/53/3 52/52/3 51/51/3
f 54/54/3 44/44/3 52/52/3
f 54/54/3 52/52/3 53/53/3
f 55/55/3 56/56/3 57/57/3
f 58/58/3 56/56/3 55/55/3
f 59/59/3 60/60/3 61/61/3
f 62/62/3 60/60/3 59/59/3
f 63/63/4 64/64/4 65/65/4
f 65/65/4 64/64/4 66/66/4
f 63/63/4 65/65/4 67/67/4
f 67/67/4 65/65/4 68/68/4
f 69/69/4 70/70/4 71/71/4
f 66/66/4 64/64/4 72/72/4
f 69/69/4 71/71/4 73/73/4
f 71/71/4 72/72/4 73/73/4
f 72/72/4 64/64/4 74/74/4
f 73/73/4 72/72/4 74/74/4
f 75/75/4 76/76/4 77/77/4
f 78/78/4 77/79/4 79/80/4
f 77/77/4 76/76/4 80/81/4
f 79/80/4 77/79/4 80/82/4
f 80/81/4 76/76/4 81/83/4
f 81/83/4 76/76/4 82/84/4
f 83/85/4 84/86/4 85/87/4
f 85/87/4 84/86/4 86/88/4
f 87/89/5 88/90/5 89/91/5
f 90/92/5 88/90/5 87/89/5
f 91/93/5 92/94/5 93/95/5
f 94/96/5 92/94/5 91/93/5
f 95/97/5 92/94/5 94/96/5
f 96/98/5 92/94/5 95/97/5
f 97/99/5 98/100/5 99/101/5
f 100/102/5 98/100/5 97/99/5
f 101/103/5 102/104/5 103/105/5
f 104/106/5 102/104/5 101/103/5
f 105/107/5 106/108/5 107/109/5
f 108/110/5 106/108/5 105/107/5
f 109/111/6 110/112/6 111/113/6
f 111/113/6 110/112/6 112/114/6
f 109/111/6 111/113/6 113/115/6
f 112/114/6 110/112/6 114/116/6
f 109/111/6 113/115/6 115/117/6
f 113/115/6 114/116/6 115/117/6
f 114/116/6 110/112/6 116/118/6
f 115/117/6 114/116/6 116/118/6
f 117/119/6 118/120/6 119/121/6
f 119/121/6 118/120/6 120/122/6
f 121/123/6 122/124/6 123/125/6
f 123/125/6 122/124/6 124/126/6
f 125/127/6 126/128/6 127/129/6
f 127/129/6 126/128/6 128/130/6
