# Blender v3.1.2 OBJ File: ''
# www.blender.org
mtllib arrow.mtl
o arrow
v -1.033334 0.300000 0.300000
v -1.033334 -0.300000 -0.300000
v -1.033334 -0.300000 0.300000
v -1.033334 0.300000 -0.300000
v 0.466666 -0.300000 0.300000
v 0.466666 -0.500000 -0.300000
v 0.466666 -0.500000 0.300000
v 0.466666 -0.300000 -0.300000
v 0.466666 0.500000 0.300000
v 0.466666 0.300000 -0.300000
v 0.466666 0.300000 0.300000
v 0.466666 0.500000 -0.300000
v 0.566666 -0.500000 0.300000
v 0.566666 -0.500000 -0.300000
v 0.566666 -0.400000 0.300000
v 0.566666 -0.400000 -0.300000
v 0.566666 0.400000 0.300000
v 0.566666 0.400000 -0.300000
v 0.566666 0.500000 0.300000
v 0.566666 0.500000 -0.300000
v 0.666666 -0.400000 0.300000
v 0.666666 -0.400000 -0.300000
v 0.666666 -0.300000 0.300000
v 0.666666 -0.300000 -0.300000
v 0.666666 0.300000 0.300000
v 0.666666 0.300000 -0.300000
v 0.666666 0.400000 0.300000
v 0.666666 0.400000 -0.300000
v 0.766666 -0.300000 0.300000
v 0.766666 -0.300000 -0.300000
v 0.766666 -0.200000 0.300000
v 0.766666 -0.200000 -0.300000
v 0.766666 0.200000 0.300000
v 0.766666 0.200000 -0.300000
v 0.766666 0.300000 0.300000
v 0.766666 0.300000 -0.300000
v 0.866666 -0.200000 0.300000
v 0.866666 -0.200000 -0.300000
v 0.866666 -0.100000 0.300000
v 0.866666 -0.100000 -0.300000
v 0.866666 0.100000 0.300000
v 0.866666 0.100000 -0.300000
v 0.866666 0.200000 0.300000
v 0.866666 0.200000 -0.300000
v 0.966666 -0.100000 0.300000
v 0.966666 -0.100000 -0.300000
v 0.966666 0.100000 0.300000
v 0.966666 0.100000 -0.300000
v -0.933334 -0.200000 0.300000
v -1.033334 0.300000 0.300000
v -1.033334 -0.300000 0.300000
v -0.933334 0.200000 0.300000
v 0.466666 -0.300000 0.300000
v 0.466666 -0.200000 0.300000
v 0.466666 0.200000 0.300000
v 0.466666 0.300000 0.300000
v 0.566666 -0.500000 0.300000
v 0.466666 0.500000 0.300000
v 0.466666 -0.500000 0.300000
v 0.566666 -0.400000 0.300000
v 0.566666 0.400000 0.300000
v 0.566666 0.500000 0.300000
v 0.666666 -0.400000 0.300000
v 0.666666 -0.300000 0.300000
v 0.666666 0.300000 0.300000
v 0.666666 0.400000 0.300000
v 0.766666 -0.300000 0.300000
v 0.766666 -0.200000 0.300000
v 0.766666 0.200000 0.300000
v 0.766666 0.300000 0.300000
v 0.866666 -0.200000 0.300000
v 0.866666 -0.100000 0.300000
v 0.866666 0.100000 0.300000
v 0.866666 0.200000 0.300000
v 0.966666 -0.100000 0.300000
v 0.966666 0.100000 0.300000
v -1.033334 -0.300000 -0.300000
v -1.033334 0.300000 -0.300000
v -0.933334 -0.200000 -0.300000
v -0.933334 0.200000 -0.300000
v 0.466666 -0.300000 -0.300000
v 0.466666 -0.200000 -0.300000
v 0.466666 0.200000 -0.300000
v 0.466666 0.300000 -0.300000
v 0.566666 -0.500000 -0.300000
v 0.466666 0.500000 -0.300000
v 0.466666 -0.500000 -0.300000
v 0.566666 -0.400000 -0.300000
v 0.566666 0.400000 -0.300000
v 0.566666 0.500000 -0.300000
v 0.666666 -0.400000 -0.300000
v 0.666666 -0.300000 -0.300000
v 0.666666 0.300000 -0.300000
v 0.666666 0.400000 -0.300000
v 0.766666 -0.300000 -0.300000
v 0.766666 -0.200000 -0.300000
v 0.766666 0.200000 -0.300000
v 0.766666 0.300000 -0.300000
v 0.866666 -0.200000 -0.300000
v 0.866666 -0.100000 -0.300000
v 0.866666 0.100000 -0.300000
v 0.866666 0.200000 -0.300000
v 0.966666 -0.100000 -0.300000
v 0.966666 0.100000 -0.300000
v 0.466666 -0.500000 -0.300000
v 0.566666 -0.500000 0.300000
v 0.466666 -0.500000 0.300000
v 0.566666 -0.500000 -0.300000
v 0.566666 -0.400000 -0.300000
v 0.666666 -0.400000 0.300000
v 0.566666 -0.400000 0.300000
v 0.666666 -0.400000 -0.300000
v -1.033334 -0.300000 -0.300000
v 0.466666 -0.300000 0.300000
v -1.033334 -0.300000 0.300000
v 0.466666 -0.300000 -0.300000
v 0.666666 -0.300000 -0.300000
v 0.766666 -0.300000 0.300000
v 0.666666 -0.300000 0.300000
v 0.766666 -0.300000 -0.300000
v 0.766666 -0.200000 -0.300000
v 0.866666 -0.200000 0.300000
v 0.766666 -0.200000 0.300000
v 0.866666 -0.200000 -0.300000
v 0.866666 -0.100000 -0.300000
v 0.966666 -0.100000 0.300000
v 0.866666 -0.100000 0.300000
v 0.966666 -0.100000 -0.300000
v 0.866666 0.100000 0.300000
v 0.966666 0.100000 0.300000
v 0.866666 0.100000 -0.300000
v 0.966666 0.100000 -0.300000
v 0.766666 0.200000 0.300000
v 0.866666 0.200000 0.300000
v 0.766666 0.200000 -0.300000
v 0.866666 0.200000 -0.300000
v -1.033334 0.300000 0.300000
v 0.466666 0.300000 0.300000
v -1.033334 0.300000 -0.300000
v 0.466666 0.300000 -0.300000
v 0.666666 0.300000 0.300000
v 0.766666 0.300000 0.300000
v 0.666666 0.300000 -0.300000
v 0.766666 0.300000 -0.300000
v 0.566666 0.400000 0.300000
v 0.666666 0.400000 0.300000
v 0.566666 0.400000 -0.300000
v 0.666666 0.400000 -0.300000
v 0.466666 0.500000 0.300000
v 0.566666 0.500000 0.300000
v 0.466666 0.500000 -0.300000
v 0.566666 0.500000 -0.300000
vt 0.994141 0.500000
vt 0.994141 0.500000
vt 0.994141 0.500000
vt 0.994141 0.500000
vt 0.994141 0.500000
vt 0.994141 0.500000
vt 0.994141 0.500000
vt 0.994141 0.500000
vt 0.994141 0.500000
vt 0.994141 0.500000
vt 0.994141 0.500000
vt 0.994141 0.500000
vt 0.994141 0.500000
vt 0.994141 0.500000
vt 0.994141 0.500000
vt 0.994141 0.500000
vt 0.994141 0.500000
vt 0.994141 0.500000
vt 0.994141 0.500000
vt 0.994141 0.500000
vt 0.994141 0.500000
vt 0.994141 0.500000
vt 0.994141 0.500000
vt 0.994141 0.500000
vt 0.994141 0.500000
vt 0.994141 0.500000
vt 0.994141 0.500000
vt 0.994141 0.500000
vt 0.994141 0.500000
vt 0.994141 0.500000
vt 0.994141 0.500000
vt 0.994141 0.500000
vt 0.994141 0.500000
vt 0.994141 0.500000
vt 0.994141 0.500000
vt 0.994141 0.500000
vt 0.994141 0.500000
vt 0.994141 0.500000
vt 0.994141 0.500000
vt 0.994141 0.500000
vt 0.994141 0.500000
vt 0.994141 0.500000
vt 0.994141 0.500000
vt 0.994141 0.500000
vt 0.994141 0.500000
vt 0.994141 0.500000
vt 0.994141 0.500000
vt 0.994141 0.500000
vt 0.994141 0.500000
vt 0.994141 0.500000
vt 0.994141 0.500000
vt 0.994141 0.500000
vt 0.994141 0.500000
vt 0.958984 0.500000
vt 0.958984 0.500000
vt 0.958984 0.500000
vt 0.994141 0.500000
vt 0.994141 0.500000
vt 0.958984 0.500000
vt 0.994141 0.500000
vt 0.994141 0.500000
vt 0.994141 0.500000
vt 0.994141 0.500000
vt 0.994141 0.500000
vt 0.994141 0.500000
vt 0.994141 0.500000
vt 0.994141 0.500000
vt 0.994141 0.500000
vt 0.994141 0.500000
vt 0.994141 0.500000
vt 0.994141 0.500000
vt 0.994141 0.500000
vt 0.994141 0.500000
vt 0.994141 0.500000
vt 0.994141 0.500000
vt 0.994141 0.500000
vt 0.994141 0.500000
vt 0.994141 0.500000
vt 0.994141 0.500000
vt 0.994141 0.500000
vt 0.994141 0.500000
vt 0.994141 0.500000
vt 0.994141 0.500000
vt 0.994141 0.500000
vt 0.994141 0.500000
vt 0.958984 0.500000
vt 0.958984 0.500000
vt 0.958984 0.500000
vt 0.994141 0.500000
vt 0.994141 0.500000
vt 0.958984 0.500000
vt 0.994141 0.500000
vt 0.994141 0.500000
vt 0.994141 0.500000
vt 0.994141 0.500000
vt 0.994141 0.500000
vt 0.994141 0.500000
vt 0.994141 0.500000
vt 0.994141 0.500000
vt 0.994141 0.500000
vt 0.994141 0.500000
vt 0.994141 0.500000
vt 0.994141 0.500000
vt 0.994141 0.500000
vt 0.994141 0.500000
vt 0.994141 0.500000
vt 0.994141 0.500000
vt 0.994141 0.500000
vt 0.994141 0.500000
vt 0.994141 0.500000
vt 0.994141 0.500000
vt 0.994141 0.500000
vt 0.994141 0.500000
vt 0.994141 0.500000
vt 0.994141 0.500000
vt 0.994141 0.500000
vt 0.994141 0.500000
vt 0.994141 0.500000
vt 0.994141 0.500000
vt 0.994141 0.500000
vt 0.994141 0.500000
vt 0.994141 0.500000
vt 0.994141 0.500000
vt 0.994141 0.500000
vt 0.994141 0.500000
vt 0.994141 0.500000
vt 0.994141 0.500000
vt 0.994141 0.500000
vt 0.994141 0.500000
vt 0.994141 0.500000
vt 0.994141 0.500000
vt 0.994141 0.500000
vt 0.994141 0.500000
vt 0.994141 0.500000
vt 0.994141 0.500000
vt 0.994141 0.500000
vt 0.994141 0.500000
vt 0.994141 0.500000
vt 0.994141 0.500000
vt 0.994141 0.500000
vt 0.994141 0.500000
vt 0.994141 0.500000
vt 0.994141 0.500000
vt 0.994141 0.500000
vt 0.994141 0.500000
vt 0.994141 0.500000
vt 0.994141 0.500000
vt 0.994141 0.500000
vt 0.994141 0.500000
vt 0.994141 0.500000
vt 0.994141 0.500000
vt 0.994141 0.500000
vt 0.994141 0.500000
vt 0.994141 0.500000
vt 0.994141 0.500000
vt 0.994141 0.500000
vt 0.994141 0.500000
vt 0.994141 0.500000
vt 0.994141 0.500000
vt 0.994141 0.500000
vn -1.0000 0.0000 0.0000
vn 1.0000 0.0000 0.0000
vn 0.0000 -0.0000 1.0000
vn 0.0000 0.0000 -1.0000
vn 0.0000 -1.0000 -0.0000
vn 0.0000 1.0000 0.0000
usemtl palette
s 1
f 1/1/1 2/2/1 3/3/1
f 4/4/1 2/2/1 1/1/1
f 5/5/1 6/6/1 7/7/1
f 8/8/1 6/6/1 5/5/1
f 9/9/1 10/10/1 11/11/1
f 12/12/1 10/10/1 9/9/1
f 13/13/2 14/14/2 15/15/2
f 15/15/2 14/14/2 16/16/2
f 17/17/2 18/18/2 19/19/2
f 19/19/2 18/18/2 20/20/2
f 21/21/2 22/22/2 23/23/2
f 23/23/2 22/22/2 24/24/2
f 25/25/2 26/26/2 27/27/2
f 27/27/2 26/26/2 28/28/2
f 29/29/2 30/30/2 31/31/2
f 31/31/2 30/30/2 32/32/2
f 33/33/2 34/34/2 35/35/2
f 35/35/2 34/34/2 36/36/2
f 37/37/2 38/38/2 39/39/2
f 39/39/2 38/38/2 40/40/2
f 41/41/2 42/42/2 43/43/2
f 43/43/2 42/42/2 44/44/2
f 45/45/2 46/46/2 47/47/2
f 47/47/2 46/46/2 48/48/2
f 49/49/3 50/50/3 51/51/3
f 52/52/3 50/50/3 49/49/3
f 53/53/3 49/49/3 51/51/3
f 54/54/3 52/55/3 49/56/3
f 54/57/3 49/49/3 53/53/3
f 55/58/3 50/50/3 52/52/3
f 55/59/3 52/55/3 54/54/3
f 56/60/3 50/50/3 55/58/3
f 57/61/3 54/57/3 53/53/3
f 57/61/3 58/62/3 56/60/3
f 57/61/3 56/60/3 55/58/3
f 57/61/3 55/58/3 54/57/3
f 57/61/3 53/53/3 59/63/3
f 60/64/3 58/62/3 57/61/3
f 61/65/3 58/62/3 60/64/3
f 62/66/3 58/62/3 61/65/3
f 63/67/3 61/65/3 60/64/3
f 64/68/3 61/65/3 63/67/3
f 65/69/3 61/65/3 64/68/3
f 66/70/3 61/65/3 65/69/3
f 67/71/3 65/69/3 64/68/3
f 68/72/3 65/69/3 67/71/3
f 69/73/3 65/69/3 68/72/3
f 70/74/3 65/69/3 69/73/3
f 71/75/3 69/73/3 68/72/3
f 72/76/3 69/73/3 71/75/3
f 73/77/3 69/73/3 72/76/3
f 74/78/3 69/73/3 73/77/3
f 75/79/3 73/77/3 72/76/3
f 76/80/3 73/77/3 75/79/3
f 77/81/4 78/82/4 79/83/4
f 79/83/4 78/82/4 80/84/4
f 77/81/4 79/83/4 81/85/4
f 79/86/4 80/87/4 82/88/4
f 81/85/4 79/83/4 82/89/4
f 80/84/4 78/82/4 83/90/4
f 82/88/4 80/87/4 83/91/4
f 83/90/4 78/82/4 84/92/4
f 81/85/4 82/89/4 85/93/4
f 84/92/4 86/94/4 85/93/4
f 83/90/4 84/92/4 85/93/4
f 82/89/4 83/90/4 85/93/4
f 87/95/4 81/85/4 85/93/4
f 85/93/4 86/94/4 88/96/4
f 88/96/4 86/94/4 89/97/4
f 89/97/4 86/94/4 90/98/4
f 88/96/4 89/97/4 91/99/4
f 91/99/4 89/97/4 92/100/4
f 92/100/4 89/97/4 93/101/4
f 93/101/4 89/97/4 94/102/4
f 92/100/4 93/101/4 95/103/4
f 95/103/4 93/101/4 96/104/4
f 96/104/4 93/101/4 97/105/4
f 97/105/4 93/101/4 98/106/4
f 96/104/4 97/105/4 99/107/4
f 99/107/4 97/105/4 100/108/4
f 100/108/4 97/105/4 101/109/4
f 101/109/4 97/105/4 102/110/4
f 100/108/4 101/109/4 103/111/4
f 103/111/4 101/109/4 104/112/4
f 105/113/5 106/114/5 107/115/5
f 108/116/5 106/114/5 105/113/5
f 109/117/5 110/118/5 111/119/5
f 112/120/5 110/118/5 109/117/5
f 113/121/5 114/122/5 115/123/5
f 116/124/5 114/122/5 113/121/5
f 117/125/5 118/126/5 119/127/5
f 120/128/5 118/126/5 117/125/5
f 121/129/5 122/130/5 123/131/5
f 124/132/5 122/130/5 121/129/5
f 125/133/5 126/134/5 127/135/5
f 128/136/5 126/134/5 125/133/5
f 129/137/6 130/138/6 131/139/6
f 131/139/6 130/138/6 132/140/6
f 133/141/6 134/142/6 135/143/6
f 135/143/6 134/142/6 136/144/6
f 137/145/6 138/146/6 139/147/6
f 139/147/6 138/146/6 140/148/6
f 141/149/6 142/150/6 143/151/6
f 143/151/6 142/150/6 144/152/6
f 145/153/6 146/154/6 147/155/6
f 147/155/6 146/154/6 148/156/6
f 149/157/6 150/158/6 151/159/6
f 151/159/6 150/158/6 152/160/6
