# Blender v3.1.2 OBJ File: ''
# www.blender.org
mtllib GloveGDLUV.mtl
o grobeGD
v -0.343549 -0.021551 -0.290578
v -0.343549 -0.121551 -0.690578
v -0.343549 -0.121551 -0.290578
v -0.343549 -0.021551 -0.490578
v -0.343549 0.078449 -0.090578
v -0.343549 -0.221551 -0.090578
v -0.343549 -0.221551 0.409422
v -0.343549 0.078449 -0.490578
v -0.343549 0.278448 0.709422
v -0.343549 -0.221552 0.509422
v -0.343549 -0.221552 0.709422
v -0.343549 0.278448 0.509422
v -0.343549 0.278449 0.409422
v -0.343549 0.278449 -0.690578
v 0.256451 -0.121551 -0.290578
v 0.256451 -0.221551 -0.590578
v 0.256451 -0.221551 -0.090578
v 0.256451 -0.121551 -0.590578
v 0.256451 -0.021551 -0.290578
v 0.256451 0.078449 -0.090578
v 0.256451 -0.021551 -0.490578
v 0.256451 0.078449 -0.490578
v 0.256451 -0.121551 -0.590578
v 0.256451 -0.121551 -0.690578
v 0.256451 0.178449 -0.590578
v 0.256451 0.178449 -0.690578
v 0.256451 0.278449 -0.590578
v 0.256451 0.278449 -0.690578
v 0.356451 -0.221552 0.709422
v 0.356451 -0.221552 0.509422
v 0.356451 0.278448 0.709422
v 0.356451 -0.221551 0.409422
v 0.356451 0.278448 0.509422
v 0.356451 -0.221551 -0.590578
v 0.356451 0.278449 0.409422
v 0.356451 0.278449 -0.590578
v 0.356451 -0.221552 0.709422
v -0.343549 0.278448 0.709422
v -0.343549 -0.221552 0.709422
v 0.356451 0.278448 0.709422
v 0.256451 -0.121551 -0.290578
v -0.343549 -0.021551 -0.290578
v -0.343549 -0.121551 -0.290578
v 0.256451 -0.021551 -0.290578
v 0.256451 -0.021551 -0.490578
v -0.343549 0.078449 -0.490578
v -0.343549 -0.021551 -0.490578
v 0.256451 0.078449 -0.490578
v -0.343549 -0.221551 -0.090578
v -0.343549 0.078449 -0.090578
v 0.256451 -0.221551 -0.090578
v 0.256451 0.078449 -0.090578
v 0.256451 -0.221551 -0.590578
v 0.256451 -0.121551 -0.590578
v 0.356451 -0.221551 -0.590578
v 0.256451 0.178449 -0.590578
v 0.256451 0.278449 -0.590578
v 0.356451 0.278449 -0.590578
v -0.343549 -0.121551 -0.690578
v -0.343549 0.278449 -0.690578
v 0.156451 0.178449 -0.690578
v 0.156451 0.278449 -0.690578
v 0.256451 -0.121551 -0.690578
v 0.256451 0.178449 -0.690578
v 0.256451 0.278449 -0.690578
v -0.343549 -0.221552 0.509422
v 0.356451 -0.221552 0.709422
v -0.343549 -0.221552 0.709422
v 0.356451 -0.221552 0.509422
v -0.343549 -0.221551 0.409422
v 0.356451 -0.221551 0.409422
v -0.343549 -0.221551 -0.090578
v 0.256451 -0.221551 -0.090578
v 0.256451 -0.221551 -0.590578
v 0.356451 -0.221551 -0.590578
v 0.256451 -0.121551 -0.590578
v 0.256451 -0.121551 -0.290578
v -0.343549 -0.121551 -0.290578
v -0.343549 -0.121551 -0.690578
v 0.256451 -0.121551 -0.690578
v -0.343549 0.078449 -0.490578
v 0.256451 0.078449 -0.090578
v -0.343549 0.078449 -0.090578
v 0.256451 0.078449 -0.490578
v -0.343549 -0.021551 -0.290578
v 0.256451 -0.021551 -0.290578
v -0.343549 -0.021551 -0.490578
v 0.256451 -0.021551 -0.490578
v -0.343549 0.278448 0.709422
v 0.356451 0.278448 0.709422
v -0.343549 0.278448 0.509422
v 0.356451 0.278448 0.509422
v -0.343549 0.278449 0.409422
v 0.356451 0.278449 0.409422
v 0.056451 0.278449 -0.190578
v 0.156451 0.278449 -0.190578
v 0.056451 0.278449 -0.390578
v 0.156451 0.278449 -0.390578
v 0.256451 0.278449 -0.390578
v 0.256451 0.278449 -0.590578
v 0.356451 0.278449 -0.590578
v -0.343549 0.278449 -0.690578
v 0.156451 0.278449 -0.690578
v 0.256451 0.278449 -0.690578
vt 0.668526 0.154895
vt 0.703842 0.013631
vt 0.703842 0.154895
vt 0.668526 0.084263
vt 0.633210 0.225526
vt 0.739158 0.225527
vt 0.739158 0.402106
vt 0.633210 0.084263
vt 0.562579 0.508054
vt 0.739158 0.437422
vt 0.739158 0.508054
vt 0.562579 0.437422
vt 0.562578 0.402106
vt 0.562578 0.013631
vt 0.217473 0.880421
vt 0.252789 0.774474
vt 0.252789 0.951053
vt 0.217473 0.774474
vt 0.182157 0.880421
vt 0.146841 0.951053
vt 0.182157 0.809789
vt 0.146841 0.809789
vt 0.288105 0.774474
vt 0.323421 0.774474
vt 0.288105 0.880421
vt 0.323421 0.880421
vt 0.288105 0.915737
vt 0.323421 0.915737
vt 0.766420 0.472738
vt 0.766420 0.402106
vt 0.943000 0.472738
vt 0.766421 0.366790
vt 0.943000 0.402106
vt 0.766421 0.013631
vt 0.943000 0.366790
vt 0.943000 0.013631
vt 0.288105 0.500000
vt 0.464684 0.747211
vt 0.288105 0.747211
vt 0.464684 0.500000
vt 0.899630 0.535316
vt 0.934946 0.747211
vt 0.899630 0.747211
vt 0.934946 0.535316
vt 0.491946 0.500000
vt 0.527262 0.711895
vt 0.491946 0.711895
vt 0.527262 0.500000
vt 0.013631 0.774474
vt 0.119579 0.774474
vt 0.013631 0.986369
vt 0.119579 0.986369
vt 0.491946 0.915737
vt 0.491946 0.880421
vt 0.527262 0.915737
vt 0.491946 0.774473
vt 0.491946 0.739158
vt 0.527262 0.739158
vt 0.013631 0.535316
vt 0.154895 0.535316
vt 0.119579 0.711895
vt 0.154895 0.711895
vt 0.013631 0.747211
vt 0.119579 0.747211
vt 0.154895 0.747211
vt 0.288105 0.402106
vt 0.535316 0.472738
vt 0.288105 0.472738
vt 0.535316 0.402106
vt 0.288105 0.366790
vt 0.535316 0.366790
vt 0.288105 0.190211
vt 0.500000 0.190211
vt 0.500000 0.013631
vt 0.535316 0.013631
vt 0.837052 0.747211
vt 0.731104 0.747211
vt 0.731104 0.535316
vt 0.872368 0.535316
vt 0.872368 0.747211
vt 0.703842 0.535316
vt 0.562578 0.747211
vt 0.562578 0.535316
vt 0.703842 0.747211
vt 0.182157 0.747211
vt 0.182157 0.535316
vt 0.252789 0.747211
vt 0.252789 0.535316
vt 0.260842 0.508054
vt 0.013631 0.508054
vt 0.260842 0.437422
vt 0.013631 0.437422
vt 0.260842 0.402106
vt 0.013631 0.402106
vt 0.119579 0.190211
vt 0.084263 0.190211
vt 0.119579 0.119579
vt 0.084263 0.119579
vt 0.048947 0.119579
vt 0.048947 0.048947
vt 0.013631 0.048947
vt 0.260842 0.013631
vt 0.084263 0.013631
vt 0.048947 0.013631
vn -1.0000 0.0000 0.0000
vn 1.0000 0.0000 0.0000
vn 0.0000 -0.0000 1.0000
vn 0.0000 0.0000 -1.0000
vn 0.0000 -1.0000 -0.0000
vn 0.0000 1.0000 0.0000
usemtl palette
s 1
f 1/1/1 2/2/1 3/3/1
f 4/4/1 2/2/1 1/1/1
f 5/5/1 6/6/1 7/7/1
f 8/8/1 2/2/1 4/4/1
f 9/9/1 10/10/1 11/11/1
f 12/12/1 7/7/1 10/10/1
f 12/12/1 10/10/1 9/9/1
f 13/13/1 8/8/1 5/5/1
f 13/13/1 7/7/1 12/12/1
f 13/13/1 5/5/1 7/7/1
f 14/14/1 2/2/1 8/8/1
f 14/14/1 8/8/1 13/13/1
f 15/15/1 16/16/1 17/17/1
f 18/18/1 16/16/1 15/15/1
f 19/19/1 15/15/1 17/17/1
f 20/20/1 19/19/1 17/17/1
f 20/20/1 21/21/1 19/19/1
f 22/22/1 21/21/1 20/20/1
f 23/23/2 24/24/2 25/25/2
f 25/25/2 24/24/2 26/26/2
f 25/25/2 26/26/2 27/27/2
f 27/27/2 26/26/2 28/28/2
f 29/29/2 30/30/2 31/31/2
f 30/30/2 32/32/2 33/33/2
f 31/31/2 30/30/2 33/33/2
f 32/32/2 34/34/2 35/35/2
f 33/33/2 32/32/2 35/35/2
f 35/35/2 34/34/2 36/36/2
f 37/37/3 38/38/3 39/39/3
f 40/40/3 38/38/3 37/37/3
f 41/41/3 42/42/3 43/43/3
f 44/44/3 42/42/3 41/41/3
f 45/45/3 46/46/3 47/47/3
f 48/48/3 46/46/3 45/45/3
f 49/49/4 50/50/4 51/51/4
f 51/51/4 50/50/4 52/52/4
f 53/53/4 54/54/4 55/55/4
f 56/56/4 57/57/4 55/55/4
f 54/54/4 56/56/4 55/55/4
f 55/55/4 57/57/4 58/58/4
f 59/59/4 60/60/4 61/61/4
f 61/61/4 60/60/4 62/62/4
f 59/59/4 61/61/4 63/63/4
f 61/61/4 62/62/4 64/64/4
f 63/63/4 61/61/4 64/64/4
f 64/64/4 62/62/4 65/65/4
f 66/66/5 67/67/5 68/68/5
f 69/69/5 67/67/5 66/66/5
f 70/70/5 69/69/5 66/66/5
f 71/71/5 69/69/5 70/70/5
f 72/72/5 71/71/5 70/70/5
f 73/73/5 71/71/5 72/72/5
f 74/74/5 71/71/5 73/73/5
f 75/75/5 71/71/5 74/74/5
f 76/76/5 77/77/5 78/78/5
f 79/79/5 76/76/5 78/78/5
f 80/80/5 76/76/5 79/79/5
f 81/81/5 82/82/5 83/83/5
f 84/84/5 82/82/5 81/81/5
f 85/85/6 86/86/6 87/87/6
f 87/87/6 86/86/6 88/88/6
f 89/89/6 90/90/6 91/91/6
f 91/91/6 90/90/6 92/92/6
f 91/91/6 92/92/6 93/93/6
f 93/93/6 92/92/6 94/94/6
f 93/93/6 94/94/6 95/95/6
f 95/95/6 94/94/6 96/96/6
f 93/93/6 95/95/6 97/97/6
f 95/95/6 96/96/6 97/97/6
f 96/96/6 94/94/6 98/98/6
f 97/97/6 96/96/6 98/98/6
f 98/98/6 94/94/6 99/99/6
f 99/99/6 94/94/6 100/100/6
f 98/98/6 99/99/6 100/100/6
f 100/100/6 94/94/6 101/101/6
f 93/93/6 97/97/6 102/102/6
f 97/97/6 98/98/6 102/102/6
f 98/98/6 100/100/6 103/103/6
f 102/102/6 98/98/6 103/103/6
f 103/103/6 100/100/6 104/104/6
