# MagicaVoxel @ Ephtracy

# group
o 

# material
mtllib boss_monitor.mtl
usemtl palette

# normals
vn -1 0 0
vn 1 0 0
vn 0 0 1
vn 0 0 -1
vn 0 -1 0
vn 0 1 0

# texcoords
vt 0.279297 0.5
vt 0.552734 0.5
vt 0.994141 0.5

# verts
v -0.8 0.8 -1.49012e-08
v -0.8 0.8 -0.1
v -0.8 1.1 -1.49012e-08
v -0.8 1.1 -0.1
v -0.7 0.7 -1.49012e-08
v -0.7 0.7 -0.1
v -0.7 0.8 -1.49012e-08
v -0.7 0.8 -0.1
v -0.7 1.1 -1.49012e-08
v -0.7 1.1 -0.1
v -0.7 1.2 -1.49012e-08
v -0.7 1.2 -0.1
v -0.6 0.1 0.1
v -0.6 0.1 -0.2
v -0.6 0.7 -1.49012e-08
v -0.6 0.7 -0.1
v -0.6 0.9 0.1
v -0.6 0.9 -1.49012e-08
v -0.6 0.9 -0.1
v -0.6 0.9 -0.2
v 0.5 0.2 0.1
v 0.5 0.2 -1.49012e-08
v 0.5 0.8 0.1
v 0.5 0.8 -1.49012e-08
v 0.5 1.1 -1.49012e-08
v 0.5 1.1 -0.1
v 0.5 1.2 -1.49012e-08
v 0.5 1.2 -0.1
v 0.6 1 -1.49012e-08
v 0.6 1 -0.1
v 0.6 1.1 -1.49012e-08
v 0.6 1.1 -0.1
v 0.7 0.9 -1.49012e-08
v 0.7 0.9 -0.1
v 0.7 1 -1.49012e-08
v 0.7 1 -0.1
v -0.7 0.9 -1.49012e-08
v -0.7 0.9 -0.1
v -0.7 1 -1.49012e-08
v -0.7 1 -0.1
v -0.6 1 -1.49012e-08
v -0.6 1 -0.1
v -0.6 1.1 -1.49012e-08
v -0.6 1.1 -0.1
v -0.5 0.2 0.1
v -0.5 0.2 -1.49012e-08
v -0.5 0.8 0.1
v -0.5 0.8 -1.49012e-08
v -0.5 1.1 -1.49012e-08
v -0.5 1.1 -0.1
v -0.5 1.2 -1.49012e-08
v -0.5 1.2 -0.1
v 0.6 0.1 0.1
v 0.6 0.1 -0.2
v 0.6 0.7 -1.49012e-08
v 0.6 0.7 -0.1
v 0.6 0.9 0.1
v 0.6 0.9 -1.49012e-08
v 0.6 0.9 -0.1
v 0.6 0.9 -0.2
v 0.7 0.7 -1.49012e-08
v 0.7 0.7 -0.1
v 0.7 0.8 -1.49012e-08
v 0.7 0.8 -0.1
v 0.7 1.1 -1.49012e-08
v 0.7 1.1 -0.1
v 0.7 1.2 -1.49012e-08
v 0.7 1.2 -0.1
v 0.8 0.8 -1.49012e-08
v 0.8 0.8 -0.1
v 0.8 1.1 -1.49012e-08
v 0.8 1.1 -0.1
v -0.6 0.1 0.1
v -0.6 0.9 0.1
v -0.5 0.2 0.1
v -0.5 0.8 0.1
v 0.5 0.2 0.1
v 0.5 0.8 0.1
v 0.6 0.1 0.1
v 0.6 0.9 0.1
v -0.8 0.8 -1.49012e-08
v -0.8 1.1 -1.49012e-08
v -0.7 0.7 -1.49012e-08
v -0.7 0.8 -1.49012e-08
v -0.7 0.9 -1.49012e-08
v -0.7 1 -1.49012e-08
v -0.7 1.1 -1.49012e-08
v -0.7 1.2 -1.49012e-08
v -0.6 0.7 -1.49012e-08
v -0.6 0.9 -1.49012e-08
v -0.6 1 -1.49012e-08
v -0.6 1.1 -1.49012e-08
v -0.5 0.2 -1.49012e-08
v -0.5 0.8 -1.49012e-08
v -0.5 1.1 -1.49012e-08
v -0.5 1.2 -1.49012e-08
v 0.5 0.2 -1.49012e-08
v 0.5 0.8 -1.49012e-08
v 0.5 1.1 -1.49012e-08
v 0.5 1.2 -1.49012e-08
v 0.6 0.7 -1.49012e-08
v 0.6 0.9 -1.49012e-08
v 0.6 1 -1.49012e-08
v 0.6 1.1 -1.49012e-08
v 0.7 0.7 -1.49012e-08
v 0.7 0.8 -1.49012e-08
v 0.7 0.9 -1.49012e-08
v 0.7 1 -1.49012e-08
v 0.7 1.1 -1.49012e-08
v 0.7 1.2 -1.49012e-08
v 0.8 0.8 -1.49012e-08
v 0.8 1.1 -1.49012e-08
v -0.8 0.8 -0.1
v -0.8 1.1 -0.1
v -0.7 0.7 -0.1
v -0.7 0.8 -0.1
v -0.7 0.9 -0.1
v -0.7 1 -0.1
v -0.7 1.1 -0.1
v -0.7 1.2 -0.1
v -0.6 0.7 -0.1
v -0.6 0.9 -0.1
v -0.6 1 -0.1
v -0.6 1.1 -0.1
v -0.5 1.1 -0.1
v -0.5 1.2 -0.1
v 0.5 1.1 -0.1
v 0.5 1.2 -0.1
v 0.6 0.7 -0.1
v 0.6 0.9 -0.1
v 0.6 1 -0.1
v 0.6 1.1 -0.1
v 0.7 0.7 -0.1
v 0.7 0.8 -0.1
v 0.7 0.9 -0.1
v 0.7 1 -0.1
v 0.7 1.1 -0.1
v 0.7 1.2 -0.1
v 0.8 0.8 -0.1
v 0.8 1.1 -0.1
v -0.6 0.1 -0.2
v -0.6 0.9 -0.2
v 0.6 0.1 -0.2
v 0.6 0.9 -0.2
v -0.6 0.1 0.1
v 0.6 0.1 0.1
v -0.6 0.1 -0.2
v 0.6 0.1 -0.2
v -0.7 0.7 -1.49012e-08
v -0.6 0.7 -1.49012e-08
v 0.6 0.7 -1.49012e-08
v 0.7 0.7 -1.49012e-08
v -0.7 0.7 -0.1
v -0.6 0.7 -0.1
v 0.6 0.7 -0.1
v 0.7 0.7 -0.1
v -0.5 0.8 0.1
v 0.5 0.8 0.1
v -0.8 0.8 -1.49012e-08
v -0.7 0.8 -1.49012e-08
v -0.5 0.8 -1.49012e-08
v 0.5 0.8 -1.49012e-08
v 0.7 0.8 -1.49012e-08
v 0.8 0.8 -1.49012e-08
v -0.8 0.8 -0.1
v -0.7 0.8 -0.1
v 0.7 0.8 -0.1
v 0.8 0.8 -0.1
v -0.7 1 -1.49012e-08
v -0.6 1 -1.49012e-08
v 0.6 1 -1.49012e-08
v 0.7 1 -1.49012e-08
v -0.7 1 -0.1
v -0.6 1 -0.1
v 0.6 1 -0.1
v 0.7 1 -0.1
v -0.6 1.1 -1.49012e-08
v -0.5 1.1 -1.49012e-08
v 0.5 1.1 -1.49012e-08
v 0.6 1.1 -1.49012e-08
v -0.6 1.1 -0.1
v -0.5 1.1 -0.1
v 0.5 1.1 -0.1
v 0.6 1.1 -0.1
v -0.5 0.2 0.1
v 0.5 0.2 0.1
v -0.5 0.2 -1.49012e-08
v 0.5 0.2 -1.49012e-08
v -0.6 0.9 0.1
v 0.6 0.9 0.1
v -0.7 0.9 -1.49012e-08
v -0.6 0.9 -1.49012e-08
v 0.6 0.9 -1.49012e-08
v 0.7 0.9 -1.49012e-08
v -0.7 0.9 -0.1
v -0.6 0.9 -0.1
v 0.6 0.9 -0.1
v 0.7 0.9 -0.1
v -0.6 0.9 -0.2
v 0.6 0.9 -0.2
v -0.8 1.1 -1.49012e-08
v -0.7 1.1 -1.49012e-08
v 0.7 1.1 -1.49012e-08
v 0.8 1.1 -1.49012e-08
v -0.8 1.1 -0.1
v -0.7 1.1 -0.1
v 0.7 1.1 -0.1
v 0.8 1.1 -0.1
v -0.7 1.2 -1.49012e-08
v -0.5 1.2 -1.49012e-08
v 0.5 1.2 -1.49012e-08
v 0.7 1.2 -1.49012e-08
v -0.7 1.2 -0.1
v -0.5 1.2 -0.1
v 0.5 1.2 -0.1
v 0.7 1.2 -0.1

# faces
f 3/1/1 2/1/1 1/1/1
f 4/1/1 2/1/1 3/1/1
f 7/1/1 6/1/1 5/1/1
f 8/1/1 6/1/1 7/1/1
f 11/1/1 10/1/1 9/1/1
f 12/1/1 10/1/1 11/1/1
f 15/2/1 14/2/1 13/2/1
f 16/2/1 14/2/1 15/2/1
f 17/2/1 15/2/1 13/2/1
f 18/2/1 15/2/1 17/2/1
f 19/2/1 14/2/1 16/2/1
f 20/2/1 14/2/1 19/2/1
f 23/2/1 22/2/1 21/2/1
f 24/2/1 22/2/1 23/2/1
f 27/1/1 26/1/1 25/1/1
f 28/1/1 26/1/1 27/1/1
f 31/1/1 30/1/1 29/1/1
f 32/1/1 30/1/1 31/1/1
f 35/1/1 34/1/1 33/1/1
f 36/1/1 34/1/1 35/1/1
f 37/1/2 38/1/2 39/1/2
f 39/1/2 38/1/2 40/1/2
f 41/1/2 42/1/2 43/1/2
f 43/1/2 42/1/2 44/1/2
f 45/2/2 46/2/2 47/2/2
f 47/2/2 46/2/2 48/2/2
f 49/1/2 50/1/2 51/1/2
f 51/1/2 50/1/2 52/1/2
f 53/2/2 54/2/2 55/2/2
f 55/2/2 54/2/2 56/2/2
f 53/2/2 55/2/2 57/2/2
f 57/2/2 55/2/2 58/2/2
f 56/2/2 54/2/2 59/2/2
f 59/2/2 54/2/2 60/2/2
f 61/1/2 62/1/2 63/1/2
f 63/1/2 62/1/2 64/1/2
f 65/1/2 66/1/2 67/1/2
f 67/1/2 66/1/2 68/1/2
f 69/1/2 70/1/2 71/1/2
f 71/1/2 70/1/2 72/1/2
f 75/2/3 74/2/3 73/2/3
f 76/2/3 74/2/3 75/2/3
f 77/2/3 75/2/3 73/2/3
f 78/2/3 74/2/3 76/2/3
f 79/2/3 77/2/3 73/2/3
f 79/2/3 78/2/3 77/2/3
f 80/2/3 74/2/3 78/2/3
f 80/2/3 78/2/3 79/2/3
f 84/1/3 82/1/3 81/1/3
f 85/1/3 82/1/3 84/1/3
f 86/1/3 82/1/3 85/1/3
f 87/1/3 82/1/3 86/1/3
f 89/1/3 84/1/3 83/1/3
f 89/1/3 85/1/3 84/1/3
f 90/1/3 85/1/3 89/1/3
f 91/1/3 88/1/3 87/1/3
f 91/1/3 87/1/3 86/1/3
f 92/1/3 88/1/3 91/1/3
f 95/1/3 88/1/3 92/1/3
f 96/1/3 88/1/3 95/1/3
f 97/3/3 94/3/3 93/3/3
f 98/3/3 94/3/3 97/3/3
f 104/1/3 100/1/3 99/1/3
f 105/1/3 102/1/3 101/1/3
f 106/1/3 102/1/3 105/1/3
f 107/1/3 102/1/3 106/1/3
f 108/1/3 104/1/3 103/1/3
f 109/1/3 100/1/3 104/1/3
f 109/1/3 104/1/3 108/1/3
f 110/1/3 100/1/3 109/1/3
f 111/1/3 107/1/3 106/1/3
f 111/1/3 108/1/3 107/1/3
f 111/1/3 109/1/3 108/1/3
f 112/1/3 109/1/3 111/1/3
f 113/1/4 114/1/4 116/1/4
f 116/1/4 114/1/4 117/1/4
f 117/1/4 114/1/4 118/1/4
f 118/1/4 114/1/4 119/1/4
f 115/1/4 116/1/4 121/1/4
f 116/1/4 117/1/4 121/1/4
f 121/1/4 117/1/4 122/1/4
f 119/1/4 120/1/4 123/1/4
f 118/1/4 119/1/4 123/1/4
f 123/1/4 120/1/4 124/1/4
f 124/1/4 120/1/4 125/1/4
f 125/1/4 120/1/4 126/1/4
f 127/1/4 128/1/4 132/1/4
f 129/1/4 130/1/4 133/1/4
f 133/1/4 130/1/4 134/1/4
f 134/1/4 130/1/4 135/1/4
f 131/1/4 132/1/4 136/1/4
f 132/1/4 128/1/4 137/1/4
f 136/1/4 132/1/4 137/1/4
f 137/1/4 128/1/4 138/1/4
f 134/1/4 135/1/4 139/1/4
f 135/1/4 136/1/4 139/1/4
f 136/1/4 137/1/4 139/1/4
f 139/1/4 137/1/4 140/1/4
f 141/2/4 142/2/4 143/2/4
f 143/2/4 142/2/4 144/2/4
f 147/2/5 146/2/5 145/2/5
f 148/2/5 146/2/5 147/2/5
f 153/1/5 150/1/5 149/1/5
f 154/1/5 150/1/5 153/1/5
f 155/1/5 152/1/5 151/1/5
f 156/1/5 152/1/5 155/1/5
f 161/2/5 158/2/5 157/2/5
f 162/2/5 158/2/5 161/2/5
f 165/1/5 160/1/5 159/1/5
f 166/1/5 160/1/5 165/1/5
f 167/1/5 164/1/5 163/1/5
f 168/1/5 164/1/5 167/1/5
f 173/1/5 170/1/5 169/1/5
f 174/1/5 170/1/5 173/1/5
f 175/1/5 172/1/5 171/1/5
f 176/1/5 172/1/5 175/1/5
f 181/1/5 178/1/5 177/1/5
f 182/1/5 178/1/5 181/1/5
f 183/1/5 180/1/5 179/1/5
f 184/1/5 180/1/5 183/1/5
f 185/2/6 186/2/6 187/2/6
f 187/2/6 186/2/6 188/2/6
f 189/2/6 190/2/6 192/2/6
f 192/2/6 190/2/6 193/2/6
f 191/1/6 192/1/6 195/1/6
f 192/2/6 193/2/6 196/2/6
f 195/1/6 192/1/6 196/1/6
f 193/1/6 194/1/6 197/1/6
f 196/2/6 193/2/6 197/2/6
f 197/1/6 194/1/6 198/1/6
f 196/2/6 197/2/6 199/2/6
f 199/2/6 197/2/6 200/2/6
f 201/1/6 202/1/6 205/1/6
f 205/1/6 202/1/6 206/1/6
f 203/1/6 204/1/6 207/1/6
f 207/1/6 204/1/6 208/1/6
f 209/1/6 210/1/6 213/1/6
f 213/1/6 210/1/6 214/1/6
f 211/1/6 212/1/6 215/1/6
f 215/1/6 212/1/6 216/1/6
