# Blender v3.1.2 OBJ File: ''
# www.blender.org
mtllib Game_new_monitor2.mtl
o new_monitor2
v -0.500000 -0.476923 0.263077
v -0.500000 -0.576923 -0.236923
v -0.500000 -0.576923 0.263077
v -0.500000 -0.476923 -0.236923
v -0.400000 -0.076923 0.163077
v -0.400000 -0.176923 -0.136923
v -0.400000 -0.176923 0.163077
v -0.400000 -0.076923 -0.136923
v -0.400000 0.223077 0.163077
v -0.400000 0.123077 -0.136923
v -0.400000 0.123077 0.163077
v -0.400000 0.223077 -0.136923
v -0.300000 -0.176923 0.163077
v -0.300000 -0.276923 -0.136923
v -0.300000 -0.276923 0.163077
v -0.300000 -0.176923 -0.136923
v -0.300000 0.123077 0.163077
v -0.300000 -0.076923 -0.136923
v -0.300000 -0.076923 0.163077
v -0.300000 0.123077 -0.136923
v -0.300000 0.323077 0.163077
v -0.300000 0.223077 -0.136923
v -0.300000 0.223077 0.163077
v -0.300000 0.323077 -0.136923
v -0.200000 -0.276923 0.063077
v -0.200000 -0.476923 -0.036923
v -0.200000 -0.476923 0.063077
v -0.200000 -0.276923 -0.036923
v -0.200000 0.423077 0.163077
v -0.200000 0.323077 -0.136923
v -0.200000 0.323077 0.163077
v -0.200000 0.423077 -0.136923
v 0.100000 0.423077 0.163077
v 0.100000 0.323077 -0.136923
v 0.100000 0.323077 0.163077
v 0.100000 0.423077 -0.136923
v 0.200000 -0.076923 -0.036923
v 0.200000 -0.176923 -0.136923
v 0.200000 -0.176923 -0.036923
v 0.200000 0.123077 -0.036923
v 0.200000 0.223077 -0.036923
v 0.200000 0.223077 -0.136923
v -0.200000 -0.176923 -0.036923
v -0.200000 -0.176923 -0.136923
v -0.200000 -0.076923 -0.036923
v -0.200000 0.123077 -0.036923
v -0.200000 0.223077 -0.036923
v -0.200000 0.223077 -0.136923
v -0.100000 0.323077 0.163077
v -0.100000 0.323077 -0.136923
v -0.100000 0.423077 0.163077
v -0.100000 0.423077 -0.136923
v 0.200000 -0.476923 0.063077
v 0.200000 -0.476923 -0.036923
v 0.200000 -0.276923 0.063077
v 0.200000 -0.276923 -0.036923
v 0.200000 0.323077 0.163077
v 0.200000 0.323077 -0.136923
v 0.200000 0.423077 0.163077
v 0.200000 0.423077 -0.136923
v 0.300000 -0.276923 0.163077
v 0.300000 -0.276923 -0.136923
v 0.300000 -0.176923 0.163077
v 0.300000 -0.176923 -0.136923
v 0.300000 -0.076923 0.163077
v 0.300000 -0.076923 -0.136923
v 0.300000 0.123077 0.163077
v 0.300000 0.123077 -0.136923
v 0.300000 0.223077 0.163077
v 0.300000 0.223077 -0.136923
v 0.300000 0.323077 0.163077
v 0.300000 0.323077 -0.136923
v 0.400000 -0.176923 0.163077
v 0.400000 -0.176923 -0.136923
v 0.400000 -0.076923 0.163077
v 0.400000 -0.076923 -0.136923
v 0.400000 0.123077 0.163077
v 0.400000 0.123077 -0.136923
v 0.400000 0.223077 0.163077
v 0.400000 0.223077 -0.136923
v 0.500000 -0.576923 0.263077
v 0.500000 -0.576923 -0.236923
v 0.500000 -0.476923 0.263077
v 0.500000 -0.476923 -0.236923
v 0.500000 -0.576923 0.263077
v -0.500000 -0.476923 0.263077
v -0.500000 -0.576923 0.263077
v 0.500000 -0.476923 0.263077
v -0.300000 -0.176923 0.163077
v -0.400000 -0.076923 0.163077
v -0.400000 -0.176923 0.163077
v -0.300000 -0.076923 0.163077
v -0.300000 0.123077 0.163077
v -0.400000 0.223077 0.163077
v -0.400000 0.123077 0.163077
v -0.300000 0.223077 0.163077
v -0.200000 0.323077 0.163077
v -0.300000 0.323077 0.163077
v -0.300000 -0.276923 0.163077
v -0.100000 0.323077 0.163077
v -0.200000 0.423077 0.163077
v -0.100000 0.423077 0.163077
v 0.100000 0.323077 0.163077
v 0.200000 0.323077 0.163077
v 0.100000 0.423077 0.163077
v 0.200000 0.423077 0.163077
v 0.300000 -0.276923 0.163077
v 0.300000 -0.176923 0.163077
v 0.300000 -0.076923 0.163077
v 0.300000 0.123077 0.163077
v 0.300000 0.223077 0.163077
v 0.300000 0.323077 0.163077
v 0.400000 -0.176923 0.163077
v 0.400000 -0.076923 0.163077
v 0.400000 0.123077 0.163077
v 0.400000 0.223077 0.163077
v 0.200000 -0.476923 0.063077
v -0.200000 -0.276923 0.063077
v -0.200000 -0.476923 0.063077
v 0.200000 -0.276923 0.063077
v -0.200000 -0.176923 -0.036923
v -0.200000 -0.076923 -0.036923
v -0.100000 -0.176923 -0.036923
v -0.200000 0.123077 -0.036923
v -0.100000 -0.076923 -0.036923
v -0.200000 0.223077 -0.036923
v -0.100000 0.123077 -0.036923
v -0.100000 0.223077 -0.036923
v 0.100000 -0.176923 -0.036923
v 0.100000 -0.076923 -0.036923
v 0.100000 0.123077 -0.036923
v 0.100000 0.223077 -0.036923
v -0.200000 -0.476923 -0.036923
v -0.200000 -0.276923 -0.036923
v 0.200000 -0.476923 -0.036923
v 0.200000 -0.276923 -0.036923
v 0.200000 -0.176923 -0.036923
v 0.200000 -0.076923 -0.036923
v 0.200000 0.123077 -0.036923
v 0.200000 0.223077 -0.036923
v -0.400000 -0.176923 -0.136923
v -0.400000 -0.076923 -0.136923
v -0.300000 -0.176923 -0.136923
v -0.300000 -0.076923 -0.136923
v -0.400000 0.123077 -0.136923
v -0.400000 0.223077 -0.136923
v -0.300000 0.123077 -0.136923
v -0.300000 0.223077 -0.136923
v -0.200000 -0.176923 -0.136923
v -0.300000 0.323077 -0.136923
v -0.300000 -0.276923 -0.136923
v -0.200000 0.223077 -0.136923
v -0.200000 0.323077 -0.136923
v -0.200000 0.423077 -0.136923
v -0.100000 0.323077 -0.136923
v -0.100000 0.423077 -0.136923
v 0.100000 0.323077 -0.136923
v 0.200000 -0.176923 -0.136923
v 0.100000 0.423077 -0.136923
v 0.200000 0.223077 -0.136923
v 0.200000 0.323077 -0.136923
v 0.200000 0.423077 -0.136923
v 0.300000 -0.276923 -0.136923
v 0.300000 -0.176923 -0.136923
v 0.300000 -0.076923 -0.136923
v 0.300000 0.123077 -0.136923
v 0.300000 0.223077 -0.136923
v 0.300000 0.323077 -0.136923
v 0.400000 -0.176923 -0.136923
v 0.400000 -0.076923 -0.136923
v 0.400000 0.123077 -0.136923
v 0.400000 0.223077 -0.136923
v -0.500000 -0.576923 -0.236923
v -0.500000 -0.476923 -0.236923
v 0.500000 -0.576923 -0.236923
v 0.500000 -0.476923 -0.236923
v -0.500000 -0.576923 -0.236923
v 0.500000 -0.576923 0.263077
v -0.500000 -0.576923 0.263077
v 0.500000 -0.576923 -0.236923
v -0.200000 -0.276923 0.063077
v 0.300000 -0.276923 0.163077
v -0.300000 -0.276923 0.163077
v 0.200000 -0.276923 0.063077
v -0.200000 -0.276923 -0.036923
v 0.200000 -0.276923 -0.036923
v -0.300000 -0.276923 -0.136923
v 0.300000 -0.276923 -0.136923
v -0.400000 -0.176923 -0.136923
v -0.300000 -0.176923 0.163077
v -0.400000 -0.176923 0.163077
v -0.300000 -0.176923 -0.136923
v 0.300000 -0.176923 -0.136923
v 0.400000 -0.176923 0.163077
v 0.300000 -0.176923 0.163077
v 0.400000 -0.176923 -0.136923
v -0.400000 0.123077 -0.136923
v -0.300000 0.123077 0.163077
v -0.400000 0.123077 0.163077
v -0.300000 0.123077 -0.136923
v 0.300000 0.123077 -0.136923
v 0.400000 0.123077 0.163077
v 0.300000 0.123077 0.163077
v 0.400000 0.123077 -0.136923
v -0.200000 0.223077 -0.136923
v -0.100000 0.223077 -0.036923
v -0.200000 0.223077 -0.036923
v 0.200000 0.223077 -0.036923
v 0.100000 0.223077 -0.036923
v 0.200000 0.223077 -0.136923
v -0.500000 -0.476923 0.263077
v 0.500000 -0.476923 0.263077
v -0.200000 -0.476923 0.063077
v 0.200000 -0.476923 0.063077
v -0.200000 -0.476923 -0.036923
v 0.200000 -0.476923 -0.036923
v -0.500000 -0.476923 -0.236923
v 0.500000 -0.476923 -0.236923
v -0.200000 -0.176923 -0.036923
v -0.100000 -0.176923 -0.036923
v -0.200000 -0.176923 -0.136923
v 0.100000 -0.176923 -0.036923
v 0.200000 -0.176923 -0.036923
v 0.200000 -0.176923 -0.136923
v -0.400000 -0.076923 0.163077
v -0.300000 -0.076923 0.163077
v -0.400000 -0.076923 -0.136923
v -0.300000 -0.076923 -0.136923
v 0.300000 -0.076923 0.163077
v 0.400000 -0.076923 0.163077
v 0.300000 -0.076923 -0.136923
v 0.400000 -0.076923 -0.136923
v -0.400000 0.223077 0.163077
v -0.300000 0.223077 0.163077
v -0.400000 0.223077 -0.136923
v -0.300000 0.223077 -0.136923
v 0.300000 0.223077 0.163077
v 0.400000 0.223077 0.163077
v 0.300000 0.223077 -0.136923
v 0.400000 0.223077 -0.136923
v -0.300000 0.323077 0.163077
v -0.200000 0.323077 0.163077
v -0.300000 0.323077 -0.136923
v -0.200000 0.323077 -0.136923
v -0.100000 0.323077 0.163077
v 0.100000 0.323077 0.163077
v -0.100000 0.323077 -0.136923
v 0.100000 0.323077 -0.136923
v 0.200000 0.323077 0.163077
v 0.300000 0.323077 0.163077
v 0.200000 0.323077 -0.136923
v 0.300000 0.323077 -0.136923
v -0.200000 0.423077 0.163077
v -0.100000 0.423077 0.163077
v -0.200000 0.423077 -0.136923
v -0.100000 0.423077 -0.136923
v 0.100000 0.423077 0.163077
v 0.200000 0.423077 0.163077
v 0.100000 0.423077 -0.136923
v 0.200000 0.423077 -0.136923
vt 0.068359 0.500000
vt 0.068359 0.500000
vt 0.068359 0.500000
vt 0.068359 0.500000
vt 0.068359 0.500000
vt 0.068359 0.500000
vt 0.068359 0.500000
vt 0.068359 0.500000
vt 0.068359 0.500000
vt 0.068359 0.500000
vt 0.068359 0.500000
vt 0.068359 0.500000
vt 0.068359 0.500000
vt 0.068359 0.500000
vt 0.068359 0.500000
vt 0.068359 0.500000
vt 0.068359 0.500000
vt 0.068359 0.500000
vt 0.068359 0.500000
vt 0.068359 0.500000
vt 0.068359 0.500000
vt 0.068359 0.500000
vt 0.068359 0.500000
vt 0.068359 0.500000
vt 0.068359 0.500000
vt 0.068359 0.500000
vt 0.068359 0.500000
vt 0.068359 0.500000
vt 0.068359 0.500000
vt 0.068359 0.500000
vt 0.068359 0.500000
vt 0.068359 0.500000
vt 0.068359 0.500000
vt 0.068359 0.500000
vt 0.068359 0.500000
vt 0.068359 0.500000
vt 0.068359 0.500000
vt 0.068359 0.500000
vt 0.068359 0.500000
vt 0.068359 0.500000
vt 0.068359 0.500000
vt 0.068359 0.500000
vt 0.068359 0.500000
vt 0.068359 0.500000
vt 0.068359 0.500000
vt 0.068359 0.500000
vt 0.068359 0.500000
vt 0.068359 0.500000
vt 0.068359 0.500000
vt 0.068359 0.500000
vt 0.068359 0.500000
vt 0.068359 0.500000
vt 0.068359 0.500000
vt 0.068359 0.500000
vt 0.068359 0.500000
vt 0.068359 0.500000
vt 0.068359 0.500000
vt 0.068359 0.500000
vt 0.068359 0.500000
vt 0.068359 0.500000
vt 0.068359 0.500000
vt 0.068359 0.500000
vt 0.068359 0.500000
vt 0.068359 0.500000
vt 0.068359 0.500000
vt 0.068359 0.500000
vt 0.068359 0.500000
vt 0.068359 0.500000
vt 0.068359 0.500000
vt 0.068359 0.500000
vt 0.068359 0.500000
vt 0.068359 0.500000
vt 0.068359 0.500000
vt 0.068359 0.500000
vt 0.068359 0.500000
vt 0.068359 0.500000
vt 0.068359 0.500000
vt 0.068359 0.500000
vt 0.068359 0.500000
vt 0.068359 0.500000
vt 0.068359 0.500000
vt 0.068359 0.500000
vt 0.068359 0.500000
vt 0.068359 0.500000
vt 0.068359 0.500000
vt 0.068359 0.500000
vt 0.068359 0.500000
vt 0.068359 0.500000
vt 0.068359 0.500000
vt 0.068359 0.500000
vt 0.068359 0.500000
vt 0.068359 0.500000
vt 0.068359 0.500000
vt 0.068359 0.500000
vt 0.068359 0.500000
vt 0.068359 0.500000
vt 0.068359 0.500000
vt 0.068359 0.500000
vt 0.068359 0.500000
vt 0.068359 0.500000
vt 0.068359 0.500000
vt 0.068359 0.500000
vt 0.068359 0.500000
vt 0.068359 0.500000
vt 0.068359 0.500000
vt 0.068359 0.500000
vt 0.068359 0.500000
vt 0.068359 0.500000
vt 0.068359 0.500000
vt 0.068359 0.500000
vt 0.068359 0.500000
vt 0.068359 0.500000
vt 0.068359 0.500000
vt 0.068359 0.500000
vt 0.068359 0.500000
vt 0.068359 0.500000
vt 0.068359 0.500000
vt 0.068359 0.500000
vt 0.068359 0.500000
vt 0.068359 0.500000
vt 0.021484 0.500000
vt 0.021484 0.500000
vt 0.021484 0.500000
vt 0.986328 0.500000
vt 0.986328 0.500000
vt 0.986328 0.500000
vt 0.021484 0.500000
vt 0.021484 0.500000
vt 0.021484 0.500000
vt 0.021484 0.500000
vt 0.986328 0.500000
vt 0.021484 0.500000
vt 0.986328 0.500000
vt 0.986328 0.500000
vt 0.986328 0.500000
vt 0.986328 0.500000
vt 0.986328 0.500000
vt 0.986328 0.500000
vt 0.068359 0.500000
vt 0.068359 0.500000
vt 0.068359 0.500000
vt 0.068359 0.500000
vt 0.021484 0.500000
vt 0.021484 0.500000
vt 0.021484 0.500000
vt 0.986328 0.500000
vt 0.021484 0.500000
vt 0.021484 0.500000
vt 0.021484 0.500000
vt 0.021484 0.500000
vt 0.986328 0.500000
vt 0.021484 0.500000
vt 0.068359 0.500000
vt 0.068359 0.500000
vt 0.068359 0.500000
vt 0.068359 0.500000
vt 0.068359 0.500000
vt 0.068359 0.500000
vt 0.068359 0.500000
vt 0.068359 0.500000
vt 0.068359 0.500000
vt 0.068359 0.500000
vt 0.068359 0.500000
vt 0.068359 0.500000
vt 0.068359 0.500000
vt 0.068359 0.500000
vt 0.068359 0.500000
vt 0.068359 0.500000
vt 0.068359 0.500000
vt 0.068359 0.500000
vt 0.068359 0.500000
vt 0.068359 0.500000
vt 0.068359 0.500000
vt 0.068359 0.500000
vt 0.068359 0.500000
vt 0.068359 0.500000
vt 0.068359 0.500000
vt 0.068359 0.500000
vt 0.068359 0.500000
vt 0.068359 0.500000
vt 0.068359 0.500000
vt 0.068359 0.500000
vt 0.068359 0.500000
vt 0.068359 0.500000
vt 0.068359 0.500000
vt 0.068359 0.500000
vt 0.068359 0.500000
vt 0.068359 0.500000
vt 0.068359 0.500000
vt 0.068359 0.500000
vt 0.068359 0.500000
vt 0.068359 0.500000
vt 0.068359 0.500000
vt 0.068359 0.500000
vt 0.068359 0.500000
vt 0.068359 0.500000
vt 0.068359 0.500000
vt 0.068359 0.500000
vt 0.068359 0.500000
vt 0.068359 0.500000
vt 0.068359 0.500000
vt 0.068359 0.500000
vt 0.068359 0.500000
vt 0.068359 0.500000
vt 0.068359 0.500000
vt 0.068359 0.500000
vt 0.068359 0.500000
vt 0.068359 0.500000
vt 0.068359 0.500000
vt 0.068359 0.500000
vt 0.068359 0.500000
vt 0.068359 0.500000
vt 0.068359 0.500000
vt 0.068359 0.500000
vt 0.068359 0.500000
vt 0.068359 0.500000
vt 0.068359 0.500000
vt 0.068359 0.500000
vt 0.068359 0.500000
vt 0.068359 0.500000
vt 0.068359 0.500000
vt 0.068359 0.500000
vt 0.068359 0.500000
vt 0.068359 0.500000
vt 0.068359 0.500000
vt 0.068359 0.500000
vt 0.068359 0.500000
vt 0.068359 0.500000
vt 0.068359 0.500000
vt 0.068359 0.500000
vt 0.068359 0.500000
vt 0.068359 0.500000
vt 0.068359 0.500000
vt 0.068359 0.500000
vt 0.068359 0.500000
vt 0.068359 0.500000
vt 0.068359 0.500000
vt 0.068359 0.500000
vt 0.068359 0.500000
vt 0.068359 0.500000
vt 0.068359 0.500000
vt 0.068359 0.500000
vt 0.068359 0.500000
vt 0.068359 0.500000
vt 0.068359 0.500000
vt 0.068359 0.500000
vt 0.068359 0.500000
vt 0.068359 0.500000
vt 0.068359 0.500000
vt 0.068359 0.500000
vt 0.068359 0.500000
vt 0.068359 0.500000
vt 0.068359 0.500000
vt 0.068359 0.500000
vt 0.068359 0.500000
vt 0.068359 0.500000
vt 0.068359 0.500000
vt 0.068359 0.500000
vt 0.068359 0.500000
vt 0.068359 0.500000
vt 0.068359 0.500000
vt 0.068359 0.500000
vt 0.068359 0.500000
vt 0.068359 0.500000
vt 0.068359 0.500000
vt 0.068359 0.500000
vt 0.068359 0.500000
vt 0.068359 0.500000
vt 0.068359 0.500000
vt 0.068359 0.500000
vt 0.068359 0.500000
vt 0.068359 0.500000
vn -1.0000 0.0000 0.0000
vn 1.0000 0.0000 0.0000
vn 0.0000 0.0000 1.0000
vn 0.0000 0.0000 -1.0000
vn 0.0000 -1.0000 -0.0000
vn -0.0000 1.0000 0.0000
usemtl palette.001
s 1
f 1/1/1 2/2/1 3/3/1
f 4/4/1 2/2/1 1/1/1
f 5/5/1 6/6/1 7/7/1
f 8/8/1 6/6/1 5/5/1
f 9/9/1 10/10/1 11/11/1
f 12/12/1 10/10/1 9/9/1
f 13/13/1 14/14/1 15/15/1
f 16/16/1 14/14/1 13/13/1
f 17/17/1 18/18/1 19/19/1
f 20/20/1 18/18/1 17/17/1
f 21/21/1 22/22/1 23/23/1
f 24/24/1 22/22/1 21/21/1
f 25/25/1 26/26/1 27/27/1
f 28/28/1 26/26/1 25/25/1
f 29/29/1 30/30/1 31/31/1
f 32/32/1 30/30/1 29/29/1
f 33/33/1 34/34/1 35/35/1
f 36/36/1 34/34/1 33/33/1
f 37/37/1 38/38/1 39/39/1
f 40/40/1 38/38/1 37/37/1
f 41/41/1 38/38/1 40/40/1
f 42/42/1 38/38/1 41/41/1
f 43/43/2 44/44/2 45/45/2
f 45/45/2 44/44/2 46/46/2
f 46/46/2 44/44/2 47/47/2
f 47/47/2 44/44/2 48/48/2
f 49/49/2 50/50/2 51/51/2
f 51/51/2 50/50/2 52/52/2
f 53/53/2 54/54/2 55/55/2
f 55/55/2 54/54/2 56/56/2
f 57/57/2 58/58/2 59/59/2
f 59/59/2 58/58/2 60/60/2
f 61/61/2 62/62/2 63/63/2
f 63/63/2 62/62/2 64/64/2
f 65/65/2 66/66/2 67/67/2
f 67/67/2 66/66/2 68/68/2
f 69/69/2 70/70/2 71/71/2
f 71/71/2 70/70/2 72/72/2
f 73/73/2 74/74/2 75/75/2
f 75/75/2 74/74/2 76/76/2
f 77/77/2 78/78/2 79/79/2
f 79/79/2 78/78/2 80/80/2
f 81/81/2 82/82/2 83/83/2
f 83/83/2 82/82/2 84/84/2
f 85/85/3 86/86/3 87/87/3
f 88/88/3 86/86/3 85/85/3
f 89/89/3 90/90/3 91/91/3
f 92/92/3 90/90/3 89/89/3
f 93/93/3 94/94/3 95/95/3
f 96/96/3 94/94/3 93/93/3
f 97/97/3 92/92/3 89/89/3
f 97/97/3 98/98/3 96/96/3
f 97/97/3 96/96/3 93/93/3
f 97/97/3 93/93/3 92/92/3
f 97/97/3 89/89/3 99/99/3
f 100/100/3 97/97/3 99/99/3
f 100/100/3 101/101/3 97/97/3
f 102/102/3 101/101/3 100/100/3
f 103/103/3 100/100/3 99/99/3
f 104/104/3 103/103/3 99/99/3
f 104/104/3 105/105/3 103/103/3
f 106/106/3 105/105/3 104/104/3
f 107/107/3 104/104/3 99/99/3
f 108/108/3 104/104/3 107/107/3
f 109/109/3 104/104/3 108/108/3
f 110/110/3 104/104/3 109/109/3
f 111/111/3 104/104/3 110/110/3
f 112/112/3 104/104/3 111/111/3
f 113/113/3 109/109/3 108/108/3
f 114/114/3 109/109/3 113/113/3
f 115/115/3 111/111/3 110/110/3
f 116/116/3 111/111/3 115/115/3
f 117/117/3 118/118/3 119/119/3
f 120/120/3 118/118/3 117/117/3
f 121/121/4 122/122/4 123/123/4
f 122/124/4 124/125/4 125/126/4
f 123/123/4 122/122/4 125/127/4
f 124/128/4 126/129/4 127/130/4
f 125/126/4 124/125/4 127/131/4
f 127/130/4 126/129/4 128/132/4
f 123/133/4 125/126/4 129/134/4
f 125/126/4 127/131/4 129/134/4
f 127/131/4 128/135/4 129/134/4
f 129/134/4 128/135/4 130/136/4
f 130/136/4 128/135/4 131/137/4
f 131/137/4 128/135/4 132/138/4
f 133/139/4 134/140/4 135/141/4
f 135/141/4 134/140/4 136/142/4
f 129/143/4 130/144/4 137/145/4
f 130/136/4 131/137/4 138/146/4
f 137/145/4 130/144/4 138/147/4
f 131/148/4 132/149/4 139/150/4
f 138/146/4 131/137/4 139/151/4
f 139/150/4 132/149/4 140/152/4
f 141/153/4 142/154/4 143/155/4
f 143/155/4 142/154/4 144/156/4
f 145/157/4 146/158/4 147/159/4
f 147/159/4 146/158/4 148/160/4
f 143/155/4 144/156/4 149/161/4
f 148/160/4 150/162/4 149/161/4
f 147/159/4 148/160/4 149/161/4
f 144/156/4 147/159/4 149/161/4
f 151/163/4 143/155/4 149/161/4
f 149/161/4 150/162/4 152/164/4
f 152/164/4 150/162/4 153/165/4
f 153/165/4 154/166/4 155/167/4
f 152/164/4 153/165/4 155/167/4
f 155/167/4 154/166/4 156/168/4
f 152/164/4 155/167/4 157/169/4
f 151/163/4 149/161/4 158/170/4
f 157/169/4 159/171/4 160/172/4
f 152/164/4 157/169/4 160/172/4
f 160/172/4 159/171/4 161/173/4
f 161/173/4 159/171/4 162/174/4
f 151/163/4 158/170/4 163/175/4
f 158/170/4 160/172/4 163/175/4
f 160/172/4 161/173/4 163/175/4
f 163/175/4 161/173/4 164/176/4
f 164/176/4 161/173/4 165/177/4
f 165/177/4 161/173/4 166/178/4
f 166/178/4 161/173/4 167/179/4
f 167/179/4 161/173/4 168/180/4
f 164/176/4 165/177/4 169/181/4
f 169/181/4 165/177/4 170/182/4
f 166/178/4 167/179/4 171/183/4
f 171/183/4 167/179/4 172/184/4
f 173/185/4 174/186/4 175/187/4
f 175/187/4 174/186/4 176/188/4
f 177/189/5 178/190/5 179/191/5
f 180/192/5 178/190/5 177/189/5
f 181/193/5 182/194/5 183/195/5
f 184/196/5 182/194/5 181/193/5
f 185/197/5 181/193/5 183/195/5
f 186/198/5 182/194/5 184/196/5
f 187/199/5 185/197/5 183/195/5
f 187/199/5 186/198/5 185/197/5
f 188/200/5 182/194/5 186/198/5
f 188/200/5 186/198/5 187/199/5
f 189/201/5 190/202/5 191/203/5
f 192/204/5 190/202/5 189/201/5
f 193/205/5 194/206/5 195/207/5
f 196/208/5 194/206/5 193/205/5
f 197/209/5 198/210/5 199/211/5
f 200/212/5 198/210/5 197/209/5
f 201/213/5 202/214/5 203/215/5
f 204/216/5 202/214/5 201/213/5
f 205/217/5 206/218/5 207/219/5
f 205/217/5 208/220/5 209/221/5
f 205/217/5 209/221/5 206/218/5
f 210/222/5 208/220/5 205/217/5
f 211/223/6 212/224/6 213/225/6
f 213/225/6 212/224/6 214/226/6
f 211/223/6 213/225/6 215/227/6
f 214/226/6 212/224/6 216/228/6
f 211/223/6 215/227/6 217/229/6
f 215/227/6 216/228/6 217/229/6
f 216/228/6 212/224/6 218/230/6
f 217/229/6 216/228/6 218/230/6
f 219/231/6 220/232/6 221/233/6
f 222/234/6 223/235/6 221/233/6
f 220/232/6 222/234/6 221/233/6
f 221/233/6 223/235/6 224/236/6
f 225/237/6 226/238/6 227/239/6
f 227/239/6 226/238/6 228/240/6
f 229/241/6 230/242/6 231/243/6
f 231/243/6 230/242/6 232/244/6
f 233/245/6 234/246/6 235/247/6
f 235/247/6 234/246/6 236/248/6
f 237/249/6 238/250/6 239/251/6
f 239/251/6 238/250/6 240/252/6
f 241/253/6 242/254/6 243/255/6
f 243/255/6 242/254/6 244/256/6
f 245/257/6 246/258/6 247/259/6
f 247/259/6 246/258/6 248/260/6
f 249/261/6 250/262/6 251/263/6
f 251/263/6 250/262/6 252/264/6
f 253/265/6 254/266/6 255/267/6
f 255/267/6 254/266/6 256/268/6
f 257/269/6 258/270/6 259/271/6
f 259/271/6 258/270/6 260/272/6
